<svg width="256" height="256" viewBox="0 0 256 256" fill="none" xmlns="http://www.w3.org/2000/svg">
<g clip-path="url(#clip0_7713_12206)">
<path d="M243.152 213.098H226.919C225.234 213.098 223.661 214.03 222.819 215.545L214.702 230.13C213.86 231.646 213.86 233.525 214.702 235.04L222.819 249.625C223.661 251.141 225.22 252.073 226.919 252.073H243.152C244.837 252.073 246.41 251.141 247.252 249.625L255.369 235.04C256.212 233.525 256.212 231.646 255.369 230.13L247.252 215.545C246.41 214.03 244.851 213.098 243.152 213.098Z" fill="#008CFF"/>
<path d="M247.788 102.269L199.075 14.7305C194.006 5.60956 184.64 0 174.501 0H77.0892C66.9506 0 57.5843 5.60956 52.515 14.716L3.80198 102.269C-1.26733 111.375 -1.26733 122.609 3.80198 131.715L52.515 219.254C57.5843 228.36 66.9506 233.97 77.0892 233.97H174.515C184.654 233.97 194.02 228.36 199.089 219.254L247.802 131.715C252.872 122.609 252.872 111.375 247.802 102.269M227.764 125.567L183.938 204.319C180.975 209.637 175.512 212.901 169.6 212.901H81.9619C76.05 212.901 70.5876 209.623 67.6246 204.319L23.7983 125.567C20.8354 120.248 20.8354 113.706 23.7983 108.388L67.6246 29.6359C70.5876 24.3178 76.05 21.054 81.9619 21.054H169.6C175.512 21.054 180.975 24.3324 183.938 29.6359L227.764 108.388C230.727 113.706 230.727 120.248 227.764 125.567Z" fill="#008CFF"/>
</g>
<defs>
<clipPath id="clip0_7713_12206">
<rect width="256" height="256" fill="white"/>
</clipPath>
</defs>
</svg>
